<svg width="512" height="512" viewBox="0 0 680 680" xmlns="http://www.w3.org/2000/svg">
  <defs>
    <clipPath id="circle-clip">
      <circle cx="340" cy="340" r="300"/>
    </clipPath>
  </defs>

  <!-- Background circle -->
  <circle cx="340" cy="340" r="300" fill="#1a0a2e"/>
  <circle cx="340" cy="340" r="295" fill="none" stroke="#b07fff" stroke-width="3" opacity="0.4"/>

  <!-- Ear left -->
  <ellipse cx="268" cy="178" rx="34" ry="80" fill="#2d1a4a"/>
  <ellipse cx="268" cy="185" rx="18" ry="58" fill="#c084fc"/>

  <!-- Ear right -->
  <ellipse cx="412" cy="178" rx="34" ry="80" fill="#2d1a4a"/>
  <ellipse cx="412" cy="185" rx="18" ry="58" fill="#c084fc"/>

  <!-- Head -->
  <ellipse cx="340" cy="340" rx="118" ry="112" fill="#2d1a4a"/>

  <!-- Eyes -->
  <ellipse cx="305" cy="308" rx="14" ry="16" fill="#b07fff"/>
  <ellipse cx="375" cy="308" rx="14" ry="16" fill="#b07fff"/>
  <circle cx="310" cy="303" r="5" fill="white"/>
  <circle cx="380" cy="303" r="5" fill="white"/>
  <circle cx="306" cy="308" r="7" fill="#1a0a2e"/>
  <circle cx="376" cy="308" r="7" fill="#1a0a2e"/>

  <!-- Nose -->
  <ellipse cx="340" cy="345" rx="9" ry="7" fill="#ff85c8"/>

  <!-- Mouth -->
  <path d="M331 353 Q340 363 349 353" fill="none" stroke="#c084fc" stroke-width="2.5" stroke-linecap="round"/>

  <!-- Whiskers left -->
  <line x1="260" y1="342" x2="325" y2="346" stroke="#c084fc" stroke-width="1.5" opacity="0.6"/>
  <line x1="258" y1="352" x2="324" y2="351" stroke="#c084fc" stroke-width="1.5" opacity="0.6"/>

  <!-- Whiskers right -->
  <line x1="356" y1="346" x2="420" y2="342" stroke="#c084fc" stroke-width="1.5" opacity="0.6"/>
  <line x1="357" y1="351" x2="421" y2="352" stroke="#c084fc" stroke-width="1.5" opacity="0.6"/>

  <!-- Cheek blush -->
  <ellipse cx="292" cy="336" rx="20" ry="12" fill="#ff85c8" opacity="0.25"/>
  <ellipse cx="388" cy="336" rx="20" ry="12" fill="#ff85c8" opacity="0.25"/>

  <!-- Sparkles -->
  <circle cx="185" cy="220" r="4" fill="#b07fff" opacity="0.7"/>
  <circle cx="495" cy="240" r="3" fill="#ff85c8" opacity="0.6"/>
  <circle cx="200" cy="460" r="3" fill="#c084fc" opacity="0.5"/>
  <circle cx="490" cy="450" r="4" fill="#b07fff" opacity="0.6"/>
  <circle cx="340" cy="105" r="3" fill="#ff85c8" opacity="0.5"/>
</svg>
